<?xml version="1.0" encoding="UTF-8" standalone="no"?>
<!DOCTYPE svg PUBLIC "-//W3C//DTD SVG 1.1//EN"
 "http://www.w3.org/Graphics/SVG/1.1/DTD/svg11.dtd">
<!-- Generated by graphviz version 2.38.0 (20140413.2041)
 -->
<!-- Title: G Pages: 1 -->
<svg width="827pt" height="1414pt"
 viewBox="0.00 0.00 826.52 1414.39" xmlns="http://www.w3.org/2000/svg" xmlns:xlink="http://www.w3.org/1999/xlink">
<g id="graph0" class="graph" transform="scale(1 1) rotate(0) translate(4 1410.39)">
<title>G</title>
<polygon fill="white" stroke="none" points="-4,4 -4,-1410.39 822.519,-1410.39 822.519,4 -4,4"/>
<!-- n1 -->
<g id="node1" class="node"><title>n1</title>
<ellipse fill="none" stroke="#caff70" cx="234.759" cy="-370.337" rx="62.4516" ry="37.4533"/>
<text text-anchor="middle" x="234.759" y="-381.637" font-family="Times,serif" font-size="14.00">Input 1</text>
<text text-anchor="middle" x="234.759" y="-366.637" font-family="Times,serif" font-size="14.00">Storage id: 1</text>
<text text-anchor="middle" x="234.759" y="-351.637" font-family="Times,serif" font-size="14.00">Size: 307200</text>
</g>
<!-- n2 -->
<g id="node2" class="node"><title>n2</title>
<ellipse fill="none" stroke="darkgoldenrod" cx="234.759" cy="-259.383" rx="234.519" ry="37.4533"/>
<text text-anchor="middle" x="234.759" y="-270.683" font-family="Times,serif" font-size="14.00">nn.SpatialConvolution(1 &#45;&gt; 961, 31x31, 8,8) without bias</text>
<text text-anchor="middle" x="234.759" y="-255.683" font-family="Times,serif" font-size="14.00">Storage id: 3</text>
<text text-anchor="middle" x="234.759" y="-240.683" font-family="Times,serif" font-size="14.00">Size: 4217829</text>
</g>
<!-- n1&#45;&gt;n2 -->
<g id="edge1" class="edge"><title>n1&#45;&gt;n2</title>
<path fill="none" stroke="black" d="M234.759,-332.754C234.759,-324.579 234.759,-315.799 234.759,-307.273"/>
<polygon fill="black" stroke="black" points="238.26,-307.055 234.759,-297.055 231.26,-307.055 238.26,-307.055"/>
</g>
<!-- n14 -->
<g id="node14" class="node"><title>n14</title>
<ellipse fill="none" stroke="#ff7256" cx="408.759" cy="-148.43" rx="68.6788" ry="37.4533"/>
<text text-anchor="middle" x="408.759" y="-159.73" font-family="Times,serif" font-size="14.00">nn.CMulTable</text>
<text text-anchor="middle" x="408.759" y="-144.73" font-family="Times,serif" font-size="14.00">Storage id: 12</text>
<text text-anchor="middle" x="408.759" y="-129.73" font-family="Times,serif" font-size="14.00">Size: 4217829</text>
</g>
<!-- n2&#45;&gt;n14 -->
<g id="edge12" class="edge"><title>n2&#45;&gt;n14</title>
<path fill="none" stroke="black" d="M291.734,-222.708C312.374,-209.784 335.584,-195.25 355.859,-182.555"/>
<polygon fill="black" stroke="black" points="357.734,-185.51 364.352,-177.236 354.019,-179.577 357.734,-185.51"/>
</g>
<!-- n3 -->
<g id="node3" class="node"><title>n3</title>
<ellipse fill="none" stroke="#b4eeb4" cx="583.759" cy="-1368.92" rx="62.4516" ry="37.4533"/>
<text text-anchor="middle" x="583.759" y="-1380.22" font-family="Times,serif" font-size="14.00">Input 2</text>
<text text-anchor="middle" x="583.759" y="-1365.22" font-family="Times,serif" font-size="14.00">Storage id: 2</text>
<text text-anchor="middle" x="583.759" y="-1350.22" font-family="Times,serif" font-size="14.00">Size: 307200</text>
</g>
<!-- n4 -->
<g id="node4" class="node"><title>n4</title>
<ellipse fill="none" stroke="darkslategrey" cx="583.759" cy="-1257.96" rx="234.519" ry="37.4533"/>
<text text-anchor="middle" x="583.759" y="-1269.26" font-family="Times,serif" font-size="14.00">nn.SpatialConvolution(1 &#45;&gt; 961, 31x31, 8,8) without bias</text>
<text text-anchor="middle" x="583.759" y="-1254.26" font-family="Times,serif" font-size="14.00">Storage id: 4</text>
<text text-anchor="middle" x="583.759" y="-1239.26" font-family="Times,serif" font-size="14.00">Size: 4217829</text>
</g>
<!-- n3&#45;&gt;n4 -->
<g id="edge2" class="edge"><title>n3&#45;&gt;n4</title>
<path fill="none" stroke="black" d="M583.759,-1331.33C583.759,-1323.16 583.759,-1314.38 583.759,-1305.85"/>
<polygon fill="black" stroke="black" points="587.26,-1305.64 583.759,-1295.64 580.26,-1305.64 587.26,-1305.64"/>
</g>
<!-- n5 -->
<g id="node5" class="node"><title>n5</title>
<ellipse fill="none" stroke="#6e8b3d" cx="583.759" cy="-1147.01" rx="67.3507" ry="37.4533"/>
<text text-anchor="middle" x="583.759" y="-1158.31" font-family="Times,serif" font-size="14.00">nn.Square</text>
<text text-anchor="middle" x="583.759" y="-1143.31" font-family="Times,serif" font-size="14.00">Storage id: 5</text>
<text text-anchor="middle" x="583.759" y="-1128.31" font-family="Times,serif" font-size="14.00">Size: 4217829</text>
</g>
<!-- n4&#45;&gt;n5 -->
<g id="edge3" class="edge"><title>n4&#45;&gt;n5</title>
<path fill="none" stroke="black" d="M583.759,-1220.38C583.759,-1212.21 583.759,-1203.43 583.759,-1194.9"/>
<polygon fill="black" stroke="black" points="587.26,-1194.68 583.759,-1184.68 580.26,-1194.68 587.26,-1194.68"/>
</g>
<!-- n6 -->
<g id="node6" class="node"><title>n6</title>
<ellipse fill="none" stroke="#6e8b3d" cx="583.759" cy="-1036.06" rx="115.017" ry="37.4533"/>
<text text-anchor="middle" x="583.759" y="-1047.36" font-family="Times,serif" font-size="14.00">nn.Reshape(961x1x77x57)</text>
<text text-anchor="middle" x="583.759" y="-1032.36" font-family="Times,serif" font-size="14.00">Storage id: 5</text>
<text text-anchor="middle" x="583.759" y="-1017.36" font-family="Times,serif" font-size="14.00">Size: 4217829</text>
</g>
<!-- n5&#45;&gt;n6 -->
<g id="edge4" class="edge"><title>n5&#45;&gt;n6</title>
<path fill="none" stroke="black" d="M583.759,-1109.43C583.759,-1101.25 583.759,-1092.47 583.759,-1083.95"/>
<polygon fill="black" stroke="black" points="587.26,-1083.73 583.759,-1073.73 580.26,-1083.73 587.26,-1083.73"/>
</g>
<!-- n7 -->
<g id="node7" class="node"><title>n7</title>
<ellipse fill="none" stroke="#cd5b45" cx="583.759" cy="-925.103" rx="162.769" ry="37.4533"/>
<text text-anchor="middle" x="583.759" y="-936.403" font-family="Times,serif" font-size="14.00">nn.SpatialBatchNormalization (4D) (1)</text>
<text text-anchor="middle" x="583.759" y="-921.403" font-family="Times,serif" font-size="14.00">Storage id: 6</text>
<text text-anchor="middle" x="583.759" y="-906.403" font-family="Times,serif" font-size="14.00">Size: 4217829</text>
</g>
<!-- n6&#45;&gt;n7 -->
<g id="edge5" class="edge"><title>n6&#45;&gt;n7</title>
<path fill="none" stroke="black" d="M583.759,-998.474C583.759,-990.299 583.759,-981.519 583.759,-972.993"/>
<polygon fill="black" stroke="black" points="587.26,-972.775 583.759,-962.775 580.26,-972.775 587.26,-972.775"/>
</g>
<!-- n8 -->
<g id="node8" class="node"><title>n8</title>
<ellipse fill="none" stroke="#8b7355" cx="583.759" cy="-814.15" rx="67.3507" ry="37.4533"/>
<text text-anchor="middle" x="583.759" y="-825.45" font-family="Times,serif" font-size="14.00">nn.Mul</text>
<text text-anchor="middle" x="583.759" y="-810.45" font-family="Times,serif" font-size="14.00">Storage id: 7</text>
<text text-anchor="middle" x="583.759" y="-795.45" font-family="Times,serif" font-size="14.00">Size: 4217829</text>
</g>
<!-- n7&#45;&gt;n8 -->
<g id="edge6" class="edge"><title>n7&#45;&gt;n8</title>
<path fill="none" stroke="black" d="M583.759,-887.52C583.759,-879.345 583.759,-870.566 583.759,-862.039"/>
<polygon fill="black" stroke="black" points="587.26,-861.822 583.759,-851.822 580.26,-861.822 587.26,-861.822"/>
</g>
<!-- n9 -->
<g id="node9" class="node"><title>n9</title>
<ellipse fill="none" stroke="ghostwhite" cx="583.759" cy="-703.197" rx="74.4932" ry="37.4533"/>
<text text-anchor="middle" x="583.759" y="-714.497" font-family="Times,serif" font-size="14.00">nn.MulConstant</text>
<text text-anchor="middle" x="583.759" y="-699.497" font-family="Times,serif" font-size="14.00">Storage id: 8</text>
<text text-anchor="middle" x="583.759" y="-684.497" font-family="Times,serif" font-size="14.00">Size: 4217829</text>
</g>
<!-- n8&#45;&gt;n9 -->
<g id="edge7" class="edge"><title>n8&#45;&gt;n9</title>
<path fill="none" stroke="black" d="M583.759,-776.567C583.759,-768.392 583.759,-759.613 583.759,-751.086"/>
<polygon fill="black" stroke="black" points="587.26,-750.868 583.759,-740.868 580.26,-750.868 587.26,-750.868"/>
</g>
<!-- n10 -->
<g id="node10" class="node"><title>n10</title>
<ellipse fill="none" stroke="#00bfff" cx="583.759" cy="-592.243" rx="67.3507" ry="37.4533"/>
<text text-anchor="middle" x="583.759" y="-603.543" font-family="Times,serif" font-size="14.00">nn.Exp</text>
<text text-anchor="middle" x="583.759" y="-588.543" font-family="Times,serif" font-size="14.00">Storage id: 9</text>
<text text-anchor="middle" x="583.759" y="-573.543" font-family="Times,serif" font-size="14.00">Size: 4217829</text>
</g>
<!-- n9&#45;&gt;n10 -->
<g id="edge8" class="edge"><title>n9&#45;&gt;n10</title>
<path fill="none" stroke="black" d="M583.759,-665.614C583.759,-657.439 583.759,-648.659 583.759,-640.133"/>
<polygon fill="black" stroke="black" points="587.26,-639.915 583.759,-629.915 580.26,-639.915 587.26,-639.915"/>
</g>
<!-- n11 -->
<g id="node11" class="node"><title>n11</title>
<ellipse fill="none" stroke="#00bfff" cx="583.759" cy="-481.29" rx="115.017" ry="37.4533"/>
<text text-anchor="middle" x="583.759" y="-492.59" font-family="Times,serif" font-size="14.00">nn.Reshape(1x961x77x57)</text>
<text text-anchor="middle" x="583.759" y="-477.59" font-family="Times,serif" font-size="14.00">Storage id: 9</text>
<text text-anchor="middle" x="583.759" y="-462.59" font-family="Times,serif" font-size="14.00">Size: 4217829</text>
</g>
<!-- n10&#45;&gt;n11 -->
<g id="edge9" class="edge"><title>n10&#45;&gt;n11</title>
<path fill="none" stroke="black" d="M583.759,-554.66C583.759,-546.485 583.759,-537.706 583.759,-529.179"/>
<polygon fill="black" stroke="black" points="587.26,-528.962 583.759,-518.962 580.26,-528.962 587.26,-528.962"/>
</g>
<!-- n12 -->
<g id="node12" class="node"><title>n12</title>
<ellipse fill="none" stroke="#eec591" cx="583.759" cy="-370.337" rx="67.3507" ry="37.4533"/>
<text text-anchor="middle" x="583.759" y="-381.637" font-family="Times,serif" font-size="14.00">nn.CMul</text>
<text text-anchor="middle" x="583.759" y="-366.637" font-family="Times,serif" font-size="14.00">Storage id: 10</text>
<text text-anchor="middle" x="583.759" y="-351.637" font-family="Times,serif" font-size="14.00">Size: 4217829</text>
</g>
<!-- n11&#45;&gt;n12 -->
<g id="edge10" class="edge"><title>n11&#45;&gt;n12</title>
<path fill="none" stroke="black" d="M583.759,-443.707C583.759,-435.532 583.759,-426.753 583.759,-418.226"/>
<polygon fill="black" stroke="black" points="587.26,-418.008 583.759,-408.008 580.26,-418.009 587.26,-418.008"/>
</g>
<!-- n13 -->
<g id="node13" class="node"><title>n13</title>
<ellipse fill="none" stroke="blueviolet" cx="583.759" cy="-259.383" rx="96.3333" ry="37.4533"/>
<text text-anchor="middle" x="583.759" y="-270.683" font-family="Times,serif" font-size="14.00">nn.myNormalize(1,2)</text>
<text text-anchor="middle" x="583.759" y="-255.683" font-family="Times,serif" font-size="14.00">Storage id: 11</text>
<text text-anchor="middle" x="583.759" y="-240.683" font-family="Times,serif" font-size="14.00">Size: 4217829</text>
</g>
<!-- n12&#45;&gt;n13 -->
<g id="edge11" class="edge"><title>n12&#45;&gt;n13</title>
<path fill="none" stroke="black" d="M583.759,-332.754C583.759,-324.579 583.759,-315.799 583.759,-307.273"/>
<polygon fill="black" stroke="black" points="587.26,-307.055 583.759,-297.055 580.26,-307.055 587.26,-307.055"/>
</g>
<!-- n13&#45;&gt;n14 -->
<g id="edge13" class="edge"><title>n13&#45;&gt;n14</title>
<path fill="none" stroke="black" d="M533.611,-227.162C511.132,-213.166 484.604,-196.65 461.794,-182.449"/>
<polygon fill="black" stroke="black" points="463.59,-179.444 453.251,-177.13 459.89,-185.386 463.59,-179.444"/>
</g>
<!-- n15 -->
<g id="node15" class="node"><title>n15</title>
<ellipse fill="none" stroke="#cd9b1d" cx="408.759" cy="-37.4767" rx="65.5227" ry="37.4533"/>
<text text-anchor="middle" x="408.759" y="-48.7767" font-family="Times,serif" font-size="14.00">nn.Sum</text>
<text text-anchor="middle" x="408.759" y="-33.7767" font-family="Times,serif" font-size="14.00">Storage id: 13</text>
<text text-anchor="middle" x="408.759" y="-18.7767" font-family="Times,serif" font-size="14.00">Size: 4389</text>
</g>
<!-- n14&#45;&gt;n15 -->
<g id="edge14" class="edge"><title>n14&#45;&gt;n15</title>
<path fill="none" stroke="black" d="M408.759,-110.847C408.759,-102.672 408.759,-93.8927 408.759,-85.3661"/>
<polygon fill="black" stroke="black" points="412.26,-85.1485 408.759,-75.1485 405.26,-85.1486 412.26,-85.1485"/>
</g>
</g>
</svg>
